<?xml version="1.0" encoding="utf-8"?>
<!-- Generator: Adobe Illustrator 25.0.1, SVG Export Plug-In . SVG Version: 6.00 Build 0)  -->
<svg version="1.1" xmlns="http://www.w3.org/2000/svg" xmlns:xlink="http://www.w3.org/1999/xlink" x="0px" y="0px"
	 viewBox="0 0 52.81 30" style="enable-background:new 0 0 52.81 30;" xml:space="preserve">
<style type="text/css">
	.st0{display:none;}
	.st1{display:inline;}
	.st2{fill:#ffff;}
	.st3{font-family:'Futura-Medium';}
	.st4{font-size:20.7043px;}
</style>
<g id="Layer_1" class="st0">
	<g class="st1">
		<path d="M32.5-22.46c0-2.76,1.02-5.14,3.06-7.15c2.04-2.01,4.49-3.01,7.34-3.01c2.9,0,5.37,1.01,7.41,3.01
			c2.04,1.96,3.07,4.37,3.07,7.22s-1.02,5.28-3.07,7.29c-2,2.01-4.44,3.01-7.34,3.01c-2.9,0-5.37-1-7.41-3.01
			C33.52-17.1,32.5-19.56,32.5-22.46z M49.9-3.44V111.4H35.98V-3.44H49.9z"/>
		<path d="M105.58-3.44h13.92v59.16h-13.92v-6.2c-5.71,5.27-11.85,7.9-18.42,7.9c-8.29,0-15.15-2.96-20.57-8.87
			c-5.38-6.03-8.07-13.56-8.07-22.59c0-8.87,2.69-16.26,8.07-22.17c5.38-5.91,12.11-8.87,20.2-8.87c6.99,0,13.24,2.84,18.79,8.5
			V-3.44z M72.58,25.79c0,5.3,1.53,9.62,4.58,12.95c3.14,3.37,7.08,5.05,11.86,5.05c5.09,0,9.2-1.63,12.34-4.88
			c3.14-3.37,4.7-7.65,4.7-12.83s-1.56-9.47-4.7-12.83c-3.14-3.29-7.21-4.94-12.22-4.94c-4.73,0-8.67,1.67-11.86,5
			C74.15,16.66,72.58,20.83,72.58,25.79z"/>
	</g>
</g>
<g id="Layer_2">
	<text transform="matrix(1 0 0 1 -1.5044 22.2119)" class="st2 st3 st4">jaar</text>
</g>
</svg>
